# xmcd
#
# Track frame offsets:
#	150
#	19816
#	39470
#	90967
#	107358
#
# Disc length: 1706 seconds
#
# Revision: 0
# Processed by: cddbd v1.5.1PL0 Copyright (c) Steve Scherf et al.
# Submitted via: EasyCDDAExtractor 8.0.2.1
#
DISCID=2a06a805
DTITLE=The Blue Seven - Live at the Penn Club
DYEAR=2000
DGENRE=Blues
TTITLE0=New Orleans Bump
TTITLE1=Billy Goat Stomp
TTITLE2=Layin' Down the Tracks
TTITLE3=When the Saints
TTITLE4=Big Lip Blues
EXTD=
EXTT0=
EXTT1=
EXTT2=
EXTT3=
EXTT4=
PLAYORDER=
